<svg width="1366" height="133" viewBox="0 0 1366 133" fill="none" xmlns="http://www.w3.org/2000/svg">
<path fill-rule="evenodd" clip-rule="evenodd" d="M1365.87 -1.31222L-0.126465 1.31244L-0.0733372 28.9626C78.9772 51.0928 172.161 70.6164 261.766 86.2756C372.293 105.591 482.063 109.299 592.454 113.028L592.455 113.028L592.455 113.028C635.328 114.477 678.295 115.928 721.436 118.298C750.032 119.869 779.24 121.882 808.412 123.893L808.413 123.893C896.53 129.966 984.326 136.017 1053.97 129.799C1119.34 123.962 1150.18 107.345 1181.08 90.6971C1191.43 85.1234 1201.78 79.5461 1213.44 74.3685C1230.71 66.6967 1241.24 57.7439 1251.72 48.8352C1265.54 37.0871 1279.26 25.4155 1308.24 16.8587C1324.46 12.0703 1344.12 8.06411 1365.88 4.55462L1365.87 -1.31222Z" fill="#DDDBF2" fill-opacity="0.26"/>
</svg>
